<svg width="1728" height="352" viewBox="0 0 1728 352" fill="none" xmlns="http://www.w3.org/2000/svg">
<circle cx="1693" cy="293" r="15" fill="black"/>
<rect x="1587.71" y="281.711" width="99" height="99" transform="rotate(-45 1587.71 281.711)" stroke="black"/>
<rect x="1644.98" y="134.696" width="109" height="109" transform="rotate(55 1644.98 134.696)" stroke="black"/>
<rect x="1433.66" y="262.516" width="119" height="119" transform="rotate(-65 1433.66 262.516)" stroke="black"/>
<rect x="1484.61" y="248.217" width="129" height="129" transform="rotate(-75 1484.61 248.217)" stroke="black"/>
<rect x="1306.66" y="312.126" width="139" height="139" transform="rotate(-95 1306.66 312.126)" stroke="black"/>
<rect x="1408.1" y="108.178" width="149" height="149" transform="rotate(105 1408.1 108.178)" stroke="black"/>
<rect x="1185.96" y="183.806" width="119" height="119" transform="rotate(-115 1185.96 183.806)" stroke="black"/>
<rect x="1173.22" y="250.503" width="109" height="109" transform="rotate(-125 1173.22 250.503)" stroke="black"/>
<rect x="1109.71" y="272.715" width="99" height="99" transform="rotate(-135 1109.71 272.715)" stroke="black"/>
<rect x="1098.6" y="328.649" width="89" height="89" transform="rotate(-145 1098.6 328.649)" stroke="black"/>
<rect x="1113.22" y="227.721" width="149" height="149" transform="rotate(150 1113.22 227.721)" stroke="black"/>
<rect x="964.657" y="331.338" width="129" height="129" transform="rotate(-159.736 964.657 331.338)" stroke="black"/>
<rect x="918.267" y="224.075" width="99" height="99" transform="rotate(170 918.267 224.075)" stroke="black"/>
<rect x="888.286" y="165.111" width="118.785" height="119.214" transform="rotate(-179.707 888.286 165.111)" stroke="black"/>
<rect x="836.436" y="199.77" width="119" height="119" transform="rotate(170 836.436 199.77)" stroke="black"/>
<rect x="619.5" y="165.5" width="149" height="149" stroke="black"/>
<rect x="590.782" y="170.707" width="109" height="109" transform="rotate(45 590.782 170.707)" stroke="black"/>
<rect x="552.578" y="148.664" width="129" height="129" transform="rotate(65 552.578 148.664)" stroke="black"/>
<rect x="256.737" y="203.69" width="109" height="109" transform="rotate(132.746 256.737 203.69)" stroke="black"/>
<rect x="160.631" y="283.686" width="104" height="104" transform="rotate(-157.347 160.631 283.686)" stroke="black"/>
<rect x="28.5785" y="289.476" width="74" height="74" transform="rotate(-80.0995 28.5785 289.476)" stroke="black"/>
<rect x="8.62773" y="230.571" width="44" height="44" transform="rotate(-72.4094 8.62773 230.571)" stroke="black"/>
<rect x="13.2858" y="215.773" width="44" height="44" transform="rotate(-123.98 13.2858 215.773)" stroke="black"/>
<rect x="380.623" y="191.332" width="64" height="64" transform="rotate(-35 380.623 191.332)" stroke="black"/>
<rect x="161.55" y="146.191" width="64" height="64" transform="rotate(-83.9173 161.55 146.191)" stroke="black"/>
<rect x="310.641" y="192.273" width="89" height="89" transform="rotate(-70 310.641 192.273)" stroke="black"/>
<rect x="300.696" y="135.217" width="69" height="69" transform="rotate(-55 300.696 135.217)" stroke="black"/>
<rect x="192.696" y="78.2171" width="69" height="69" transform="rotate(-55 192.696 78.2171)" stroke="black"/>
<rect x="348.792" y="0.696364" width="99" height="99" transform="rotate(55 348.792 0.696364)" stroke="black"/>
<rect x="1384.54" y="330.012" width="139" height="139" transform="rotate(-85 1384.54 330.012)" stroke="black"/>
</svg>
