<svg width="179" height="73" viewBox="0 0 179 73" fill="none" xmlns="http://www.w3.org/2000/svg">
<path d="M6.84 58V16H10.5L29.7 48.76H27.78L46.8 16H50.46V58H46.2V22.66H47.22L29.7 52.66H27.6L9.96 22.66H11.1V58H6.84Z" fill="black"/>
<path d="M172.16 58V16H156.44C152.88 16 149.82 16.58 147.26 17.74C144.7 18.86 142.74 20.5 141.38 22.66C139.98 24.78 139.28 27.36 139.28 30.4C139.28 33.36 139.98 35.92 141.38 38.08C142.74 40.2 144.7 41.84 147.26 43C149.82 44.12 152.88 44.68 156.44 44.68H169.7L167.72 42.64V58H172.16ZM143.48 58L154.28 42.76H149.48L138.62 58H143.48ZM167.72 43L169.7 40.9H156.56C152.36 40.9 149.18 39.98 147.02 38.14C144.82 36.3 143.72 33.72 143.72 30.4C143.72 27.04 144.82 24.44 147.02 22.6C149.18 20.76 152.36 19.84 156.56 19.84H169.7L167.72 17.74V43Z" fill="black"/>
<circle cx="96" cy="37" r="4" fill="#161414"/>
<circle cx="96.5" cy="37.5" r="20.5" stroke="black" stroke-width="4"/>
<rect x="95" y="2" width="2" height="10" rx="1" fill="#161414"/>
<rect x="95" y="63" width="2" height="10" rx="1" fill="#161414"/>
<rect x="122" y="38" width="2" height="10" rx="1" transform="rotate(-90 122 38)" fill="#161414"/>
<rect x="61" y="38" width="2" height="10" rx="1" transform="rotate(-90 61 38)" fill="#161414"/>
<rect x="68" y="11.4141" width="2" height="10" rx="1" transform="rotate(-45 68 11.4141)" fill="#161414"/>
<rect width="2" height="10" rx="1" transform="matrix(-0.707107 -0.707107 -0.707107 0.707107 122.485 10.4141)" fill="#161414"/>
<rect width="2" height="10" rx="1" transform="matrix(-0.707107 -0.707107 -0.707107 0.707107 76.4852 58.4141)" fill="#161414"/>
<rect x="115" y="57.4141" width="2" height="10" rx="1" transform="rotate(-45 115 57.4141)" fill="#161414"/>
</svg>
